# xmcd CD database file
#
# Track frame offsets:
#	150
#	16027
#	27306
#	37448
#	49071
#	67066
#	76812
#	90025
#	100105
#	110189
#	123129
#	129883
#	140331
#	151726
#	160502
#	169969
#	180401
#
# Disc length: 2457 seconds
#
# Revision: 0
# Processed by: cddbd v1.5.2PL0 Copyright (c) Steve Scherf et al.
# Submitted via: CDex 1.51
#
DISCID=ca099711
DTITLE=Guy Lombardo - and His Royal Canadians
DYEAR=1966
DGENRE=Jazz
TTITLE0=Theme: Auld Land Syne/Dearheart
TTITLE1=Ain't She Sweet?
TTITLE2=Maria Elena
TTITLE3=Canadian Capers
TTITLE4=Medley: Blues in the Night, Birth of the Blues, I've Got a Right to Sing the Blues
TTITLE5=Girl from Impanema
TTITLE6=The Chicken Song
TTITLE7=East of the Sun
TTITLE8=When My Sugar Walks Down the Street
TTITLE9=Moon River
TTITLE10=12th Street Rag
TTITLE11=Red Roses for a Blue Lady
TTITLE12=The Sweetheart Tree
TTITLE13=The Pie in the Face Polka
TTITLE14=Oh Marie
TTITLE15=More
TTITLE16=Auld Lang Syne
EXTD=YEAR: 1966
EXTT0=
EXTT1=
EXTT2=
EXTT3=
EXTT4=
EXTT5=
EXTT6=
EXTT7=
EXTT8=
EXTT9=
EXTT10=
EXTT11=
EXTT12=
EXTT13=
EXTT14=
EXTT15=
EXTT16=
PLAYORDER=
